<svg width="338" height="277" viewBox="0 0 338 277" fill="none" xmlns="http://www.w3.org/2000/svg">
<path d="M229.027 26.7734H309.4L309.853 111.413C309.893 118.547 315.734 124.347 322.947 124.347C326.427 124.333 329.68 122.96 332.133 120.493C334.573 118.013 335.907 114.747 335.893 111.267L335.36 13.68C335.36 13.2267 335.32 12.8 335.253 12.3467C335.227 11.92 335.173 11.4934 335.093 11.1201C335.013 10.6801 334.88 10.28 334.72 9.81334C334.613 9.42667 334.493 9.04011 334.32 8.65344C334.16 8.25344 333.96 7.88009 333.733 7.49342C333.547 7.12009 333.347 6.77344 333.12 6.45344C332.88 6.09344 332.6 5.74673 332.293 5.40006C332.067 5.10673 331.827 4.82678 331.52 4.52011C331.213 4.21344 330.88 3.93339 330.533 3.66673C330.24 3.41339 329.933 3.17342 329.627 2.96008C329.267 2.72008 328.867 2.49339 328.414 2.26673C328.094 2.08006 327.76 1.90675 327.4 1.76008C326.96 1.57342 326.494 1.42667 325.947 1.28001C325.654 1.17334 325.334 1.08006 324.947 1.00006C324.094 0.826725 323.227 0.733392 322.307 0.733392H229.027C221.84 0.733392 216 6.57342 216 13.7601C216 20.9334 221.84 26.7734 229.027 26.7734" fill="#211D1D"/>
<path d="M324.6 157.107C317.413 157.107 311.573 162.947 311.573 170.133V250.507L226.947 250.96C219.8 251 214 256.84 214 264.04C214.013 267.52 215.387 270.787 217.853 273.24C220.32 275.667 223.56 277 227.014 277C227.04 277 227.054 277 227.08 277L324.627 276.467C325.093 276.467 325.547 276.427 326 276.36C326.413 276.333 326.827 276.28 327.28 276.187C327.694 276.107 328.08 275.987 328.52 275.84C328.933 275.72 329.333 275.587 329.653 275.44C330.067 275.267 330.453 275.067 330.853 274.827C331.213 274.653 331.56 274.453 331.92 274.213C332.267 273.973 332.6 273.707 332.947 273.4C333.24 273.173 333.52 272.933 333.827 272.627C334.133 272.32 334.4 272 334.68 271.627C334.947 271.333 335.187 271.04 335.387 270.733C335.64 270.36 335.854 269.96 336.08 269.52C336.267 269.2 336.427 268.88 336.587 268.52C336.773 268.08 336.92 267.613 337.067 267.067C337.173 266.747 337.267 266.44 337.347 266.053C337.52 265.2 337.614 264.32 337.614 263.413V170.133C337.614 162.947 331.773 157.107 324.6 157.107" fill="#211D1D"/>
<path d="M108.88 250.96H28.4933L28.0399 166.32C27.9999 159.187 22.16 153.373 14.96 153.373C7.77332 153.427 1.97342 159.293 2.00009 166.467L2.53342 264.013C2.53342 264.48 2.57327 264.933 2.63994 265.387C2.67994 265.8 2.72004 266.213 2.81337 266.667C2.90671 267.08 3.0266 267.48 3.17327 267.92C3.27994 268.307 3.41327 268.693 3.57327 269.08C3.7466 269.48 3.9466 269.853 4.17327 270.24C4.35994 270.6 4.5466 270.947 4.77327 271.28C5.01327 271.64 5.29337 271.973 5.61337 272.347C5.84004 272.627 6.0666 272.907 6.37327 273.213C6.67994 273.507 6.99999 273.787 7.35999 274.067C7.65332 274.32 7.97332 274.56 8.29332 274.787C8.65332 275.027 9.04009 275.24 9.46676 275.453C9.80009 275.653 10.1467 275.827 10.48 275.973C10.92 276.16 11.3734 276.293 11.9467 276.453C12.28 276.573 12.6 276.667 12.9467 276.733C13.8134 276.907 14.6801 277 15.5868 277H108.88C116.053 277 121.893 271.16 121.893 263.973C121.893 256.8 116.053 250.96 108.88 250.96" fill="#211D1D"/>
<path d="M26.0268 107.987V27.6L110.667 27.1468C117.8 27.1068 123.613 21.2667 123.613 14.0667C123.6 10.5733 122.227 7.32001 119.747 4.86667C117.293 2.44001 114.04 1.10678 110.6 1.10678C110.573 1.10678 110.547 1.10678 110.52 1.10678L12.9333 1.64011C12.4933 1.64011 12.0533 1.68009 11.6 1.74675C11.1733 1.77342 10.7468 1.82678 10.3734 1.90678C9.94677 2.00011 9.53328 2.12009 9.07995 2.28009C8.67995 2.38675 8.29344 2.50675 7.90677 2.68009C7.5201 2.84009 7.14661 3.04009 6.74661 3.28009C6.38661 3.45342 6.04016 3.65337 5.69349 3.89337C5.34682 4.13337 5.02677 4.38673 4.6401 4.72006C4.34677 4.94673 4.06667 5.18673 3.8 5.45339C3.49333 5.76006 3.21339 6.09342 2.92005 6.48008C2.66672 6.77342 2.42682 7.08011 2.22682 7.37344C1.97349 7.73344 1.76 8.13344 1.53333 8.57344C1.33333 8.90678 1.16016 9.26678 1.02682 9.57344C0.840156 10.0134 0.693333 10.4667 0.533333 11.0534C0.426667 11.3734 0.320052 11.7067 0.253385 12.0534C0.0800521 12.9067 0 13.7867 0 14.6934V107.987C0 115.16 5.83995 121 13.0133 121C20.1866 121 26.0268 115.16 26.0268 107.987" fill="#211D1D"/>
</svg>
