<svg width="278" height="278" viewBox="0 0 278 278" fill="none" xmlns="http://www.w3.org/2000/svg">
<path d="M162.666 104.307C162.693 104.72 162.746 105.12 162.826 105.493C162.906 105.907 163.026 106.307 163.173 106.72C163.28 107.107 163.413 107.493 163.573 107.867C163.733 108.24 163.92 108.6 164.146 108.973C164.32 109.307 164.493 109.64 164.72 109.96C164.96 110.32 165.226 110.64 165.52 110.973C165.733 111.253 165.96 111.52 166.253 111.813C166.546 112.107 166.866 112.373 167.186 112.627C167.48 112.867 167.773 113.107 168.08 113.32C168.453 113.56 168.84 113.773 169.2 113.96C169.533 114.147 169.866 114.333 170.2 114.467C170.626 114.653 171.08 114.787 171.586 114.933C171.92 115.04 172.253 115.133 172.546 115.187C173.373 115.36 174.213 115.453 175.093 115.453H261.2C268.093 115.453 273.693 109.84 273.693 102.947C273.693 96.0667 268.093 90.4534 261.2 90.4534H187.493L187.066 12.8267C187.04 5.9734 181.426 0.400043 174.506 0.400043C171.173 0.413376 168.04 1.73335 165.693 4.10668C163.346 6.48002 162.066 9.6134 162.08 12.9601L162.573 102.987C162.573 103.44 162.613 103.88 162.666 104.307Z" fill="#211D1D"/>
<path d="M273.92 165.96C271.56 163.627 268.44 162.347 265.133 162.347C265.107 162.347 265.08 162.347 265.053 162.347L175.027 162.84C174.573 162.84 174.133 162.88 173.707 162.933C173.293 162.973 172.893 163.013 172.52 163.093C172.107 163.187 171.707 163.307 171.293 163.44C170.907 163.56 170.533 163.68 170.147 163.84C169.773 164 169.4 164.2 169.053 164.413C168.707 164.587 168.373 164.76 168.053 164.987C167.707 165.227 167.387 165.48 167.04 165.787C166.747 166.013 166.48 166.24 166.227 166.507C165.92 166.8 165.64 167.133 165.387 167.48C165.147 167.747 164.933 168.013 164.693 168.36C164.453 168.72 164.24 169.107 164.053 169.467C163.867 169.8 163.693 170.133 163.547 170.467C163.373 170.88 163.227 171.32 163.08 171.867C162.973 172.2 162.88 172.52 162.827 172.813C162.653 173.64 162.56 174.48 162.56 175.36V261.467C162.56 268.36 168.173 273.96 175.067 273.96C181.947 273.96 187.56 268.36 187.56 261.467V187.76L265.2 187.347C272.04 187.307 277.627 181.693 277.627 174.773C277.6 171.44 276.28 168.307 273.92 165.96" fill="#211D1D"/>
<path d="M115.08 173.987C115.04 173.573 115 173.16 114.92 172.787C114.827 172.373 114.707 171.987 114.573 171.56C114.453 171.173 114.333 170.8 114.187 170.467C114.027 170.067 113.827 169.68 113.6 169.32C113.427 168.973 113.253 168.653 113.053 168.347C112.813 168 112.533 167.667 112.24 167.32C112 167.013 111.76 166.733 111.507 166.493C111.213 166.187 110.88 165.907 110.547 165.653C110.28 165.413 110 165.2 109.627 164.947C109.28 164.707 108.907 164.507 108.56 164.333C108.227 164.133 107.88 163.96 107.547 163.827C107.133 163.64 106.68 163.493 106.133 163.347C105.84 163.24 105.52 163.16 105.2 163.093C104.387 162.92 103.533 162.84 102.653 162.84H16.5466C9.65324 162.84 4.05334 168.44 4.05334 175.333C4.05334 182.227 9.65324 187.827 16.5466 187.827H90.2533L90.6799 265.467C90.7066 272.32 96.3199 277.893 103.24 277.893C106.573 277.867 109.707 276.56 112.053 274.187C114.4 271.813 115.68 268.667 115.667 265.333L115.173 175.253C115.173 174.813 115.133 174.387 115.08 173.987" fill="#211D1D"/>
<path d="M12.6934 115.933L102.773 115.453C103.2 115.44 103.627 115.4 104.027 115.347C104.44 115.32 104.853 115.267 105.227 115.187C105.64 115.107 106.04 114.987 106.453 114.84C106.84 114.733 107.213 114.6 107.547 114.467C107.947 114.293 108.32 114.093 108.72 113.867C109.04 113.693 109.373 113.52 109.667 113.32C110.013 113.08 110.347 112.813 110.693 112.507C110.987 112.28 111.267 112.04 111.547 111.76C111.84 111.467 112.107 111.147 112.36 110.827C112.6 110.533 112.84 110.24 113.053 109.933C113.293 109.56 113.507 109.173 113.68 108.827C113.88 108.493 114.053 108.147 114.187 107.827C114.373 107.4 114.52 106.96 114.667 106.413C114.773 106.093 114.867 105.76 114.92 105.48C115.093 104.653 115.173 103.8 115.173 102.92V16.8134C115.173 9.9201 109.573 4.32007 102.68 4.32007C95.8 4.32007 90.1868 9.9201 90.1868 16.8134V90.5201L12.5467 90.9468C5.69335 90.9868 0.120117 96.5867 0.120117 103.507C0.146784 106.84 1.45337 109.973 3.84004 112.32C6.18671 114.653 9.30668 115.933 12.6133 115.933C12.64 115.933 12.6668 115.933 12.6934 115.933" fill="#211D1D"/>
</svg>
