<svg width="345" height="269" viewBox="0 0 345 269" fill="none" xmlns="http://www.w3.org/2000/svg">
<path d="M148.007 29.3468L84.472 73.6402H17.4066C8.16127 73.6402 0.666626 81.1469 0.666626 90.3869V173.774C0.666626 183.027 8.16127 190.52 17.4066 190.52H84.472L148.007 234.813C152.799 238.16 159.368 234.734 159.368 228.894V35.2801C159.368 29.4268 152.799 26.0001 148.007 29.3468" fill="#211D1D"/>
<path d="M282.097 268.76C279.093 268.76 276.091 267.613 273.797 265.333C269.201 260.747 269.192 253.307 273.776 248.707C304.124 218.28 320.837 177.853 320.837 134.88C320.837 91.8934 304.119 51.4668 273.763 21.0401C269.177 16.4401 269.185 9.00007 273.779 4.4134C278.38 -0.173264 285.82 -0.159904 290.401 4.4401C325.185 39.2934 344.343 85.6267 344.343 134.88C344.343 184.12 325.193 230.44 290.417 265.307C288.123 267.613 285.109 268.76 282.097 268.76" fill="#211D1D"/>
<path d="M236.529 224.773C233.527 224.773 230.524 223.64 228.228 221.347C223.635 216.76 223.624 209.32 228.208 204.72C246.831 186.053 257.085 161.253 257.085 134.88C257.085 108.493 246.827 83.6934 228.2 65.0267C223.615 60.4267 223.623 52.9867 228.217 48.4C232.816 43.8134 240.255 43.8266 244.839 48.4133C267.895 71.52 280.591 102.227 280.591 134.88C280.591 167.52 267.899 198.213 244.851 221.32C242.555 223.627 239.541 224.773 236.529 224.773" fill="#211D1D"/>
</svg>
