<svg width="339" height="208" viewBox="0 0 339 208" fill="none" xmlns="http://www.w3.org/2000/svg">
<path d="M298.933 103.88L335.84 66.9734C339.387 63.4268 339.387 57.6668 335.84 54.1202L335.48 53.7734C331.933 50.2268 326.187 50.2268 322.64 53.7734L285.733 90.6801L248.826 53.7734C245.28 50.2268 239.533 50.2268 235.987 53.7734L235.64 54.1202C232.08 57.6668 232.08 63.4268 235.64 66.9734L272.533 103.88L235.64 140.773C232.08 144.32 232.08 150.08 235.64 153.627L235.987 153.973C239.533 157.52 245.28 157.52 248.826 153.973L285.733 117.067L322.64 153.973C326.187 157.52 331.933 157.52 335.48 153.973L335.84 153.627C339.387 150.08 339.387 144.32 335.84 140.773L298.933 103.88Z" fill="#211D1D"/>
<path d="M146.64 1.64004L83.4133 45.7201H16.68C7.47997 45.7201 0.0133057 53.1868 0.0133057 62.3868V145.36C0.0133057 154.56 7.47997 162.027 16.68 162.027H83.4133L146.64 206.107C151.413 209.44 157.947 206.027 157.947 200.213V7.53339C157.947 1.72006 151.413 -1.67996 146.64 1.64004Z" fill="#211D1D"/>
</svg>
