<svg width="131" height="270" viewBox="0 0 131 270" fill="none" xmlns="http://www.w3.org/2000/svg">
<path d="M19.1068 269.413H18.1599C8.58655 269.413 0.840088 261.653 0.840088 252.093V17.4667C0.840088 7.8934 8.58655 0.146679 18.1599 0.146679H19.1068C28.6801 0.146679 36.4265 7.8934 36.4265 17.4667V252.093C36.4265 261.653 28.6801 269.413 19.1068 269.413Z" fill="#211D1D"/>
<path d="M113.28 269.413H112.333C102.76 269.413 95.0132 261.653 95.0132 252.093V17.4667C95.0132 7.8934 102.76 0.146679 112.333 0.146679H113.28C122.853 0.146679 130.6 7.8934 130.6 17.4667V252.093C130.6 261.653 122.853 269.413 113.28 269.413Z" fill="#211D1D"/>
</svg>
